<?xml version="1.0" encoding="UTF-8"?>
<!DOCTYPE svg PUBLIC "-//W3C//DTD SVG 1.1//EN" "http://www.w3.org/Graphics/SVG/1.1/DTD/svg11.dtd">
<!-- Creator: CorelDRAW 2019 (64 Bit) -->
<svg xmlns="http://www.w3.org/2000/svg" xml:space="preserve" width="297mm" height="210mm" version="1.1" style="shape-rendering:geometricPrecision; text-rendering:geometricPrecision; image-rendering:optimizeQuality; fill-rule:evenodd; clip-rule:evenodd"
viewBox="0 0 29700 21000"
 xmlns:xlink="http://www.w3.org/1999/xlink">
 <defs>
  <style type="text/css">
   <![CDATA[
    .str0 {stroke:#FEFEFE;stroke-width:1000;stroke-miterlimit:22.9256}
    .fil1 {fill:none}
    .fil2 {fill:#FEFEFE}
    .fil0 {fill:url(#id0)}
   ]]>
  </style>
  <linearGradient id="id0" gradientUnits="userSpaceOnUse" x1="13454.75" y1="770.46" x2="16244.2" y2="20243.79">
   <stop offset="0" style="stop-opacity:1; stop-color:#5CF674"/>
   <stop offset="1" style="stop-opacity:1; stop-color:#2DBA29"/>
  </linearGradient>
 </defs>
 <g id="Camada_x0020_1">
  <metadata id="CorelCorpID_0Corel-Layer"/>
  <g id="_2424346782016">
   <rect class="fil0" x="5041.16" y="698.82" width="19616.61" height="19616.61" rx="4018.52" ry="2753.39"/>
   <path class="fil1 str0" d="M14849.45 4656.52c3203.82,0 5801.01,2619.4 5801.01,5850.61 0,3231.2 -2597.19,5850.6 -5801.01,5850.6 -1243.12,0 -2394.85,-394.48 -3338.94,-1066l-2057.27 652.05 888.94 -1753.88c-808.8,-1005.64 -1293.71,-2287 -1293.71,-3682.77 0,-3231.21 2597.19,-5850.61 5800.98,-5850.61z"/>
   <path class="fil2" d="M16856.57 13827.65l216.99 -14.79c69.58,-38.82 189.14,-61.56 267.26,-97.03 351.28,-159.52 686.34,-513.73 889.13,-827.92 177.03,-274.27 129.78,-312.81 198.65,-463.15l-14.58 -213.85 -100.03 -143.31c-148.9,-164.66 -427.71,-373.69 -616.28,-508.89 -75.44,-54.1 -175.42,-119.05 -264.32,-174.32 -550.27,-342.19 -855.17,-589.25 -1128.35,-49.5 -101.15,199.85 -167.89,425.15 -266.67,613.8 -82.97,158.42 -317.23,367.9 -601.17,236.61 -681.77,-315.24 -1561.87,-984.33 -2019.99,-1564.57l-102.9 -132.78c-188.54,-249.94 -388.04,-505.95 -246.54,-805.1 84.48,-178.61 326,-236.8 543.22,-373.98 99.15,-62.61 188.87,-125.77 260.42,-187.08 246.81,-211.49 202.85,-324.61 50.97,-608.31 -227.29,-424.58 -489.9,-790.06 -775.37,-1054.69 -435.62,-403.8 -725.41,-339.71 -1165.28,69.42 -268.77,249.99 -601.97,602.95 -696.87,1085.49 -147.59,750.49 870.34,2052.8 1197.52,2456.66 806.45,995.48 1651.81,1620.12 2751.66,2195.35 85.27,44.6 185.55,91.26 290.72,142.25 782.17,379.27 1200.56,366.38 1331.81,419.69z"/>
  </g>
 </g>
</svg>
